<?xml version="1.0" encoding="UTF-8"?>
<!DOCTYPE svg PUBLIC "-//W3C//DTD SVG 1.1//EN" "http://www.w3.org/Graphics/SVG/1.1/DTD/svg11.dtd">
<!-- Creator: CorelDRAW -->
<svg xmlns="http://www.w3.org/2000/svg" xml:space="preserve" width="5.0872mm" height="5.1121mm" version="1.1" style="shape-rendering:geometricPrecision; text-rendering:geometricPrecision; image-rendering:optimizeQuality; fill-rule:evenodd; clip-rule:evenodd"
viewBox="0 0 185.29 186.2"
 xmlns:xlink="http://www.w3.org/1999/xlink"
 xmlns:xodm="http://www.corel.com/coreldraw/odm/2003">
 <defs>
  <style type="text/css">
   <![CDATA[
    .fil0 {fill:#2B2A29}
   ]]>
  </style>
 </defs>
 <g id="Katman_x0020_1">
  <metadata id="CorelCorpID_0Corel-Layer"/>
  <path class="fil0" d="M16.7 25.71l18.16 0 0 2.55c0,4.71 3.85,8.56 8.56,8.56l26.68 0c4.71,0 8.56,-3.85 8.56,-8.56l0 -2.55 27.97 0 0 2.55c0,4.71 3.85,8.56 8.56,8.56l26.68 0c4.71,0 8.56,-3.85 8.56,-8.56l0 -2.55 18.16 0c9.19,0 16.7,7.51 16.7,16.7l0 127.07c0,9.19 -7.51,16.7 -16.7,16.7l-151.89 0c-9.19,0 -16.7,-7.51 -16.7,-16.7l0 -127.07c0,-9.19 7.51,-16.7 16.7,-16.7zm124.21 55.05c6.29,0 11.39,5.1 11.39,11.39 0,6.29 -5.1,11.39 -11.39,11.39 -6.29,0 -11.39,-5.1 -11.39,-11.39 0,-6.29 5.1,-11.39 11.39,-11.39zm0 40.94c6.29,0 11.39,5.1 11.39,11.39 0,6.29 -5.1,11.39 -11.39,11.39 -6.29,0 -11.39,-5.1 -11.39,-11.39 0,-6.29 5.1,-11.39 11.39,-11.39zm-32.18 0c6.29,0 11.39,5.1 11.39,11.39 0,6.29 -5.1,11.39 -11.39,11.39 -6.29,0 -11.39,-5.1 -11.39,-11.39 0,-6.29 5.1,-11.39 11.39,-11.39zm-32.18 0c6.29,0 11.39,5.1 11.39,11.39 0,6.29 -5.1,11.39 -11.39,11.39 -6.29,0 -11.39,-5.1 -11.39,-11.39 0,-6.29 5.1,-11.39 11.39,-11.39zm-32.18 0c6.29,0 11.39,5.1 11.39,11.39 0,6.29 -5.1,11.39 -11.39,11.39 -6.29,0 -11.39,-5.1 -11.39,-11.39 0,-6.29 5.1,-11.39 11.39,-11.39zm0 -40.94c6.29,0 11.39,5.1 11.39,11.39 0,6.29 -5.1,11.39 -11.39,11.39 -6.29,0 -11.39,-5.1 -11.39,-11.39 0,-6.29 5.1,-11.39 11.39,-11.39zm32.18 0c6.29,0 11.39,5.1 11.39,11.39 0,6.29 -5.1,11.39 -11.39,11.39 -6.29,0 -11.39,-5.1 -11.39,-11.39 0,-6.29 5.1,-11.39 11.39,-11.39zm32.18 0c6.29,0 11.39,5.1 11.39,11.39 0,6.29 -5.1,11.39 -11.39,11.39 -6.29,0 -11.39,-5.1 -11.39,-11.39 0,-6.29 5.1,-11.39 11.39,-11.39zm-78.66 -23.63l125.14 0c7.46,0 13.57,6.11 13.57,13.57l0 83.85c0,7.46 -6.1,13.57 -13.57,13.57l-125.14 0c-7.46,0 -13.57,-6.11 -13.57,-13.57l0 -83.85c0,-7.46 6.1,-13.57 13.57,-13.57zm26.45 -57.13c8.26,0 14.96,6.7 14.96,14.96 0,8.26 -6.7,14.96 -14.96,14.96 -8.26,0 -14.96,-6.7 -14.96,-14.96 0,-8.26 6.7,-14.96 14.96,-14.96zm72.5 0c8.26,0 14.96,6.7 14.96,14.96 0,8.26 -6.7,14.96 -14.96,14.96 -8.26,0 -14.96,-6.7 -14.96,-14.96 0,-8.26 6.7,-14.96 14.96,-14.96z"/>
 </g>
</svg>
