<?xml version="1.0" encoding="UTF-8"?>
<!DOCTYPE svg PUBLIC "-//W3C//DTD SVG 1.1//EN" "http://www.w3.org/Graphics/SVG/1.1/DTD/svg11.dtd">
<!-- Creator: CorelDRAW -->
<svg xmlns="http://www.w3.org/2000/svg" xml:space="preserve" width="7.2191mm" height="7.2191mm" version="1.1" style="shape-rendering:geometricPrecision; text-rendering:geometricPrecision; image-rendering:optimizeQuality; fill-rule:evenodd; clip-rule:evenodd"
viewBox="0 0 31.36 31.36"
 xmlns:xlink="http://www.w3.org/1999/xlink"
 xmlns:xodm="http://www.corel.com/coreldraw/odm/2003">
 <defs>
  <style type="text/css">
   <![CDATA[
    .fil0 {fill:#F41112;fill-rule:nonzero}
    .fil1 {fill:white;fill-rule:nonzero}
   ]]>
  </style>
 </defs>
 <g id="Katman_x0020_1">
  <metadata id="CorelCorpID_0Corel-Layer"/>
  <g id="_2844206566544">
   <polygon class="fil0" points="31.36,0 -0,0 -0,31.36 31.36,31.36 "/>
   <g>
    <path class="fil1" d="M9.64 12.65l-4.99 0 0 0.23c0.58,0.03 0.76,0.1 0.76,0.71l0 4.05c0,0.63 -0.18,0.68 -0.76,0.71l0 0.21 2.8 0 0 -0.21c-0.71,-0.03 -0.86,-0.1 -0.86,-0.71l0 -1.93 1.02 0c0.76,0 1.12,0.18 1.25,0.86l0.23 0 0 -2.09 -0.23 0c-0.1,0.63 -0.31,0.78 -1.25,0.78l-1.02 0 0 -1.88c0,-0.23 0.05,-0.29 0.34,-0.29l0.89 0c1.18,0 1.38,0.21 1.59,0.86l0.24 0 0 -1.31z"/>
    <path class="fil1" d="M13.43 17.95l-1.15 -1.7 0.63 -0.78c0.42,-0.5 0.65,-0.76 1.02,-0.78l0 -0.23 -1.62 0 0 0.23c0.29,0 0.42,0.08 0.42,0.26 0,0.16 -0.18,0.37 -0.34,0.52l-0.37 0.42 -0.42 -0.63c-0.1,-0.13 -0.18,-0.23 -0.18,-0.37 0,-0.13 0.16,-0.21 0.42,-0.21l0 -0.23 -2.17 0 0 0.23c0.31,0.08 0.44,0.26 0.6,0.5l1.07 1.57 -0.89 1.05c-0.31,0.37 -0.47,0.5 -0.84,0.55l0 0.21 1.59 0 0 -0.21c-0.21,0 -0.44,-0.05 -0.44,-0.18 0,-0.13 0.16,-0.31 0.42,-0.63l0.37 -0.44 0.44 0.65c0.16,0.23 0.23,0.34 0.23,0.42 0,0.1 -0.16,0.16 -0.44,0.16l0 0.21 2.22 0 0 -0.21c-0.18,0.05 -0.34,0 -0.57,-0.37z"/>
    <path class="fil1" d="M17.17 12.65l-2.8 0 0 0.23c0.6,0.03 0.76,0.1 0.76,0.71l0 4.05c0,0.63 -0.16,0.68 -0.76,0.71l0 0.21 2.74 0 0 -0.21c-0.63,-0.03 -0.78,-0.1 -0.78,-0.71l0 -1.54 0.78 0c1.52,0 2.33,-0.6 2.33,-1.72 -0.03,-0.97 -0.65,-1.72 -2.27,-1.72zm-0.86 3.11l0 -2.43c0,-0.21 0.08,-0.34 0.5,-0.34 0.78,0 1.39,0.44 1.39,1.25 0,0.94 -0.5,1.52 -1.88,1.52z"/>
    <path class="fil1" d="M22.21 14.37c-0.5,0 -0.81,0.39 -0.97,0.76l-0.03 0 0 -0.63c0,-0.08 0,-0.13 -0.05,-0.13 -0.08,0 -1.05,0.26 -1.49,0.34l0 0.23c0.39,0 0.5,0.08 0.5,0.52l0 2.38c0,0.37 -0.16,0.44 -0.5,0.5l0 0.21 2.17 0 0 -0.21c-0.39,0 -0.63,-0.1 -0.63,-0.55l0 -2.3c0.13,-0.21 0.29,-0.34 0.44,-0.34 0.1,0 0.18,0.05 0.23,0.08 0.08,0.05 0.18,0.18 0.42,0.18 0.26,0 0.47,-0.21 0.47,-0.47 0.03,-0.26 -0.16,-0.57 -0.57,-0.57z"/>
    <path class="fil1" d="M24.72 14.37c-1.18,0 -1.99,0.91 -1.99,2.17 0,1.25 0.81,2.17 1.99,2.17 1.18,0 1.99,-0.91 1.99,-2.17 0,-1.25 -0.81,-2.17 -1.99,-2.17zm0 3.97c-0.63,0 -0.86,-0.55 -0.86,-1.8 0,-1.25 0.26,-1.8 0.86,-1.8 0.63,0 0.86,0.55 0.86,1.8 0.03,1.25 -0.23,1.8 -0.86,1.8z"/>
   </g>
  </g>
 </g>
</svg>
