<?xml version="1.0" encoding="UTF-8"?>
<!DOCTYPE svg PUBLIC "-//W3C//DTD SVG 1.1//EN" "http://www.w3.org/Graphics/SVG/1.1/DTD/svg11.dtd">
<!-- Creator: CorelDRAW -->
<svg xmlns="http://www.w3.org/2000/svg" xml:space="preserve" width="4.5404mm" height="4.4386mm" version="1.1" style="shape-rendering:geometricPrecision; text-rendering:geometricPrecision; image-rendering:optimizeQuality; fill-rule:evenodd; clip-rule:evenodd"
viewBox="0 0 17.77 17.37"
 xmlns:xlink="http://www.w3.org/1999/xlink"
 xmlns:xodm="http://www.corel.com/coreldraw/odm/2003">
 <defs>
  <style type="text/css">
   <![CDATA[
    .fil0 {fill:#2B2A29}
   ]]>
  </style>
 </defs>
 <g id="Katman_x0020_1">
  <metadata id="CorelCorpID_0Corel-Layer"/>
  <path class="fil0" d="M11.43 12.28l-2.89 -3.05 0.01 -0.01 -0.02 0.01 0 -4c0,-0.24 0.35,-0.6 0.77,-0.6 0.43,0 0.77,0.36 0.77,0.6l0 3.37 2.49 2.63c0.17,0.18 0.15,0.67 -0.16,0.96 -0.31,0.29 -0.81,0.27 -0.97,0.09zm-10.06 -5.23c-0.09,0.04 -0.19,0.05 -0.28,0.05 -0.3,-0 -0.58,-0.18 -0.72,-0.44 -0.03,-0.05 -0.05,-0.11 -0.07,-0.18 -0.02,-0.07 -0.03,-0.15 -0.02,-0.23l-0.28 -3.68c-0.03,-0.42 0.3,-0.77 0.72,-0.77 0.41,0 0.77,0.33 0.8,0.74l0.13 1.65c1.52,-2.51 4.28,-4.19 7.44,-4.19 4.8,0 8.69,3.89 8.69,8.69 0,4.8 -3.89,8.69 -8.69,8.69 -4.21,0 -7.71,-2.99 -8.51,-6.96 -0.12,-0.8 1.51,-1.03 1.72,0 0.77,3.03 3.52,5.28 6.79,5.28 3.87,0 7.01,-3.14 7.01,-7.01 0,-3.87 -3.14,-7.01 -7.01,-7.01 -2.61,0 -4.88,1.42 -6.09,3.54l1.61 -0.29c0.4,-0.07 0.81,0.2 0.91,0.59 0.11,0.41 -0.15,0.82 -0.57,0.89l-3.58 0.63z"/>
 </g>
</svg>
