<?xml version="1.0" encoding="UTF-8"?>
<!DOCTYPE svg PUBLIC "-//W3C//DTD SVG 1.1//EN" "http://www.w3.org/Graphics/SVG/1.1/DTD/svg11.dtd">
<!-- Creator: CorelDRAW -->
<svg xmlns="http://www.w3.org/2000/svg" xml:space="preserve" width="3.3377mm" height="4.1955mm" version="1.1" style="shape-rendering:geometricPrecision; text-rendering:geometricPrecision; image-rendering:optimizeQuality; fill-rule:evenodd; clip-rule:evenodd"
viewBox="0 0 16.03 20.15"
 xmlns:xlink="http://www.w3.org/1999/xlink"
 xmlns:xodm="http://www.corel.com/coreldraw/odm/2003">
 <defs>
  <style type="text/css">
   <![CDATA[
    .fil0 {fill:#2B2A29}
   ]]>
  </style>
 </defs>
 <g id="Katman_x0020_1">
  <metadata id="CorelCorpID_0Corel-Layer"/>
  <path class="fil0" d="M-0 4.13l2.02 0 0 -2.3 1.7 0 0 2.3 2.02 0 0 12.06 -2.02 0 0 1.84 -1.7 0 0 -1.84 -2.02 0 0 -12.06zm10.29 0l2.02 0 0 -4.13 1.7 0 0 4.13 2.02 0 0 13.09 -2.02 0 0 2.93 -1.7 0 0 -2.93 -2.02 0 0 -13.09zm1.55 1.79l2.64 0 0 9.51 -2.64 0 0 -9.51zm-10.29 0l2.64 0 0 8.48 -2.64 0 0 -8.48z"/>
 </g>
</svg>
