<?xml version="1.0" encoding="UTF-8"?>
<!DOCTYPE svg PUBLIC "-//W3C//DTD SVG 1.1//EN" "http://www.w3.org/Graphics/SVG/1.1/DTD/svg11.dtd">
<!-- Creator: CorelDRAW -->
<svg xmlns="http://www.w3.org/2000/svg" xml:space="preserve" width="4.5285mm" height="4.0277mm" version="1.1" style="shape-rendering:geometricPrecision; text-rendering:geometricPrecision; image-rendering:optimizeQuality; fill-rule:evenodd; clip-rule:evenodd"
viewBox="0 0 123.02 109.41"
 xmlns:xlink="http://www.w3.org/1999/xlink"
 xmlns:xodm="http://www.corel.com/coreldraw/odm/2003">
 <defs>
  <style type="text/css">
   <![CDATA[
    .fil0 {fill:#2B2A29}
   ]]>
  </style>
 </defs>
 <g id="Katman_x0020_1">
  <metadata id="CorelCorpID_0Corel-Layer"/>
  <path class="fil0" d="M18.39 0l30.04 0c5.11,0 9.74,2.11 13.09,5.5 3.34,-3.39 7.98,-5.5 13.08,-5.5l30.04 0c10.11,0 18.39,8.27 18.39,18.39l0 72.64c0,10.12 -8.27,18.39 -18.39,18.39l-30.04 0c-5.11,0 -9.74,-2.11 -13.08,-5.5 -3.34,3.39 -7.98,5.5 -13.09,5.5l-30.04 0c-10.11,0 -18.39,-8.27 -18.39,-18.39l0 -72.64c0,-10.12 8.27,-18.39 18.39,-18.39zm58.63 61.94l19.99 0c1.18,0 2.14,0.96 2.14,2.14l0 7.08c0,1.18 -0.96,2.14 -2.14,2.14l-19.99 0c-1.18,0 -2.14,-0.96 -2.14,-2.14l0 -7.08c0,-1.18 0.96,-2.14 2.14,-2.14zm0 -24.89l19.99 0c1.18,0 2.14,0.96 2.14,2.14l0 7.08c0,1.18 -0.96,2.14 -2.14,2.14l-19.99 0c-1.18,0 -2.14,-0.96 -2.14,-2.14l0 -7.08c0,-1.18 0.96,-2.14 2.14,-2.14zm-51 24.89l19.99 0c1.18,0 2.14,0.96 2.14,2.14l0 7.08c0,1.18 -0.96,2.14 -2.14,2.14l-19.99 0c-1.18,0 -2.14,-0.96 -2.14,-2.14l0 -7.08c0,-1.18 0.96,-2.14 2.14,-2.14zm0 -24.89l19.99 0c1.18,0 2.14,0.96 2.14,2.14l0 7.08c0,1.18 -0.96,2.14 -2.14,2.14l-19.99 0c-1.18,0 -2.14,-0.96 -2.14,-2.14l0 -7.08c0,-1.18 0.96,-2.14 2.14,-2.14zm40.8 51.25l0 -2.28c-1.2,-4.61 -9.61,-5.04 -10.61,0l0 2.28c0,5 -2.71,9.61 -8.6,9.61l-28.4 0c-4.73,0 -8.6,-3.87 -8.6,-8.6l0 -69.2c0,-4.73 3.87,-8.6 8.6,-8.6l28.4 0c4.73,0 8.6,3.87 8.6,8.6l0 3.38c0.99,5.04 9.4,4.61 10.61,0l0 -3.6c0.12,-4.63 3.94,-8.38 8.6,-8.38l28.4 0c4.73,0 8.6,3.87 8.6,8.6l0 69.2c0,4.73 -3.87,8.6 -8.6,8.6l-28.4 0c-5.62,0 -8.6,-4.4 -8.6,-9.61z"/>
 </g>
</svg>
