<?xml version="1.0" encoding="UTF-8"?>
<!DOCTYPE svg PUBLIC "-//W3C//DTD SVG 1.1//EN" "http://www.w3.org/Graphics/SVG/1.1/DTD/svg11.dtd">
<!-- Creator: CorelDRAW -->
<svg xmlns="http://www.w3.org/2000/svg" xml:space="preserve" width="4.3398mm" height="3.9662mm" version="1.1" style="shape-rendering:geometricPrecision; text-rendering:geometricPrecision; image-rendering:optimizeQuality; fill-rule:evenodd; clip-rule:evenodd"
viewBox="0 0 60.28 55.09"
 xmlns:xlink="http://www.w3.org/1999/xlink"
 xmlns:xodm="http://www.corel.com/coreldraw/odm/2003">
 <defs>
  <style type="text/css">
   <![CDATA[
    .fil0 {fill:#2B2A29}
   ]]>
  </style>
 </defs>
 <g id="Katman_x0020_1">
  <metadata id="CorelCorpID_0Corel-Layer"/>
  <path class="fil0" d="M18.05 0l37.07 0c2.84,0 5.16,2.32 5.16,5.16l0 44.33c0,2.84 -2.32,5.16 -5.16,5.16l-37.07 0c-1.32,0 -2.52,-0.5 -3.43,-1.32 -1.52,1.1 -3.38,1.76 -5.4,1.76l-0 0c-5.07,0 -9.21,-4.14 -9.21,-9.21l0 -20.48c0.3,-2.35 4.71,-2.08 5,0l0 19.05c0,2.77 2.27,5.04 5.04,5.04 1.06,0 2.04,-0.33 2.86,-0.9l0 -43.43c0,-2.84 2.32,-5.16 5.16,-5.16zm11.33 30.28l14.41 0c1.13,0 2.04,0.92 2.04,2.04l0 1.96c0,1.13 -0.92,2.04 -2.04,2.04l-14.41 0c-1.13,0 -2.04,-0.92 -2.04,-2.04l0 -1.96c0,-1.13 0.92,-2.04 2.04,-2.04zm0 -12.43l14.41 0c1.13,0 2.04,0.92 2.04,2.04l0 1.96c0,1.13 -0.92,2.04 -2.04,2.04l-14.41 0c-1.13,0 -2.04,-0.92 -2.04,-2.04l0 -1.96c0,-1.13 0.92,-2.04 2.04,-2.04zm-7.6 -12.36l29.62 0c2.27,0 4.12,1.85 4.12,4.12l0 35.41c0,2.27 -1.85,4.12 -4.12,4.12l-29.62 0c-2.27,0 -4.12,-1.85 -4.12,-4.12l0 -35.41c0,-2.27 1.85,-4.12 4.12,-4.12z"/>
 </g>
</svg>
