<?xml version="1.0" encoding="UTF-8"?>
<!DOCTYPE svg PUBLIC "-//W3C//DTD SVG 1.1//EN" "http://www.w3.org/Graphics/SVG/1.1/DTD/svg11.dtd">
<!-- Creator: CorelDRAW -->
<svg xmlns="http://www.w3.org/2000/svg" xml:space="preserve" width="4.2388mm" height="4.7213mm" version="1.1" style="shape-rendering:geometricPrecision; text-rendering:geometricPrecision; image-rendering:optimizeQuality; fill-rule:evenodd; clip-rule:evenodd"
viewBox="0 0 63.84 71.11"
 xmlns:xlink="http://www.w3.org/1999/xlink"
 xmlns:xodm="http://www.corel.com/coreldraw/odm/2003">
 <defs>
  <style type="text/css">
   <![CDATA[
    .fil0 {fill:#2B2A29}
   ]]>
  </style>
 </defs>
 <g id="Katman_x0020_1">
  <metadata id="CorelCorpID_0Corel-Layer"/>
  <path class="fil0" d="M6.68 9.06l6.77 0 0 -6.85c0,-1.22 1,-2.22 2.22,-2.22l4.8 0c1.22,0 2.22,1 2.22,2.22l0 6.85 18.48 0 0 -6.85c0,-1.22 1,-2.22 2.22,-2.22l4.8 0c1.22,0 2.22,1 2.22,2.22l0 6.85 6.77 0c3.67,0 6.68,3 6.68,6.67l0 5.36 -63.84 0 0 -5.36c0,-3.67 3,-6.67 6.68,-6.67zm39.52 44.78l7.87 0c0.41,0 0.74,0.33 0.74,0.74l0 7.87c0,0.41 -0.33,0.74 -0.74,0.74l-7.87 0c-0.41,0 -0.74,-0.33 -0.74,-0.74l0 -7.87c0,-0.41 0.33,-0.74 0.74,-0.74zm-17.92 0l7.87 0c0.41,0 0.74,0.33 0.74,0.74l0 7.87c0,0.41 -0.33,0.74 -0.74,0.74l-7.87 0c-0.41,0 -0.74,-0.33 -0.74,-0.74l0 -7.87c0,-0.41 0.33,-0.74 0.74,-0.74zm-18.59 0l7.87 0c0.41,0 0.74,0.33 0.74,0.74l0 7.87c0,0.41 -0.33,0.74 -0.74,0.74l-7.87 0c-0.41,0 -0.74,-0.33 -0.74,-0.74l0 -7.87c0,-0.41 0.33,-0.74 0.74,-0.74zm0 -17.57l7.87 0c0.41,0 0.74,0.33 0.74,0.74l0 7.87c0,0.41 -0.33,0.74 -0.74,0.74l-7.87 0c-0.41,0 -0.74,-0.33 -0.74,-0.74l0 -7.87c0,-0.41 0.33,-0.74 0.74,-0.74zm18.59 0l7.87 0c0.41,0 0.74,0.33 0.74,0.74l0 7.87c0,0.41 -0.33,0.74 -0.74,0.74l-7.87 0c-0.41,0 -0.74,-0.33 -0.74,-0.74l0 -7.87c0,-0.41 0.33,-0.74 0.74,-0.74zm17.92 0l7.87 0c0.41,0 0.74,0.33 0.74,0.74l0 7.87c0,0.41 -0.33,0.74 -0.74,0.74l-7.87 0c-0.41,0 -0.74,-0.33 -0.74,-0.74l0 -7.87c0,-0.41 0.33,-0.74 0.74,-0.74zm17.65 -9.18l0 37.34c0,3.67 -3,6.67 -6.68,6.67l-50.49 0c-3.67,0 -6.68,-3 -6.68,-6.67l0 -37.34 63.84 0z"/>
 </g>
</svg>
