<?xml version="1.0" encoding="UTF-8"?>
<!DOCTYPE svg PUBLIC "-//W3C//DTD SVG 1.1//EN" "http://www.w3.org/Graphics/SVG/1.1/DTD/svg11.dtd">
<!-- Creator: CorelDRAW -->
<svg xmlns="http://www.w3.org/2000/svg" xml:space="preserve" width="4.4594mm" height="3.5873mm" version="1.1" style="shape-rendering:geometricPrecision; text-rendering:geometricPrecision; image-rendering:optimizeQuality; fill-rule:evenodd; clip-rule:evenodd"
viewBox="0 0 19.33 15.55"
 xmlns:xlink="http://www.w3.org/1999/xlink"
 xmlns:xodm="http://www.corel.com/coreldraw/odm/2003">
 <defs>
  <style type="text/css">
   <![CDATA[
    .fil0 {fill:#2B2A29}
   ]]>
  </style>
 </defs>
 <g id="Katman_x0020_1">
  <metadata id="CorelCorpID_0Corel-Layer"/>
  <path class="fil0" d="M15.58 5.67l-2.38 3.33c0.12,0.24 0.19,0.52 0.19,0.81 0,1 -0.81,1.81 -1.81,1.81 -1,0 -1.81,-0.81 -1.81,-1.81 0,-0.16 0.02,-0.32 0.06,-0.47l-1.74 -1.7c-0.13,0.03 -0.27,0.05 -0.41,0.05 -0.06,0 -0.12,-0 -0.18,-0.01l-2.3 3.22c0.37,0.49 0.59,1.1 0.59,1.76 0,1.6 -1.3,2.9 -2.9,2.9 -1.6,0 -2.9,-1.3 -2.9,-2.9 0,-1.6 1.3,-2.9 2.9,-2.9 0.29,0 0.58,0.04 0.85,0.13l2.3 -3.23c-0.11,-0.24 -0.18,-0.5 -0.18,-0.78 0,-1 0.81,-1.81 1.81,-1.81 1,0 1.81,0.81 1.81,1.81 0,0.2 -0.03,0.39 -0.09,0.56l1.67 1.63c0.16,-0.05 0.33,-0.07 0.5,-0.07 0.05,0 0.1,0 0.15,0.01l2.4 -3.36c-0.37,-0.49 -0.59,-1.09 -0.59,-1.75 0,-1.6 1.3,-2.9 2.9,-2.9 1.6,0 2.9,1.3 2.9,2.9 0,1.6 -1.3,2.9 -2.9,2.9 -0.3,0 -0.59,-0.05 -0.86,-0.13z"/>
 </g>
</svg>
