<?xml version="1.0" encoding="UTF-8"?>
<!DOCTYPE svg PUBLIC "-//W3C//DTD SVG 1.1//EN" "http://www.w3.org/Graphics/SVG/1.1/DTD/svg11.dtd">
<!-- Creator: CorelDRAW -->
<svg xmlns="http://www.w3.org/2000/svg" xml:space="preserve" width="3.5866mm" height="3.0838mm" version="1.1" style="shape-rendering:geometricPrecision; text-rendering:geometricPrecision; image-rendering:optimizeQuality; fill-rule:evenodd; clip-rule:evenodd"
viewBox="0 0 30.12 25.9"
 xmlns:xlink="http://www.w3.org/1999/xlink"
 xmlns:xodm="http://www.corel.com/coreldraw/odm/2003">
 <defs>
  <style type="text/css">
   <![CDATA[
    .fil0 {fill:#2B2A29}
   ]]>
  </style>
 </defs>
 <g id="Katman_x0020_1">
  <metadata id="CorelCorpID_0Corel-Layer"/>
  <path class="fil0" d="M8.67 21.77l0 -17.48 4.28 4.84c0.47,0.53 1.32,0.61 1.9,0.18 0.57,-0.43 0.66,-1.22 0.19,-1.75l-6.05 -6.83c-0.08,-0.16 -0.19,-0.3 -0.34,-0.42 -0.42,-0.33 -1.01,-0.38 -1.48,-0.17l-0 0c-0.1,0.04 -0.2,0.1 -0.29,0.17 -0.12,0.09 -0.22,0.19 -0.29,0.31l-6.27 6.77c-0.48,0.52 -0.42,1.31 0.15,1.76 0.56,0.45 1.42,0.38 1.9,-0.14l4.35 -4.7 0 17.47c0,0.49 0.44,0.9 0.97,0.9 0.54,0 0.97,-0.4 0.97,-0.9zm14.78 -17.64l0 17.48 4.28 -4.84c0.47,-0.53 1.32,-0.61 1.9,-0.18 0.57,0.43 0.66,1.22 0.19,1.75l-6.04 6.83c-0.08,0.16 -0.19,0.3 -0.34,0.42 -0.42,0.33 -1.01,0.38 -1.48,0.17l-0 -0c-0.1,-0.04 -0.2,-0.1 -0.29,-0.17 -0.12,-0.09 -0.22,-0.19 -0.29,-0.31l-6.27 -6.77c-0.48,-0.52 -0.42,-1.31 0.15,-1.76 0.56,-0.45 1.42,-0.38 1.9,0.14l4.35 4.7 0 -17.47c0,-0.49 0.44,-0.9 0.97,-0.9 0.54,0 0.97,0.4 0.97,0.9z"/>
 </g>
</svg>
