<?xml version="1.0" encoding="UTF-8"?>
<!DOCTYPE svg PUBLIC "-//W3C//DTD SVG 1.1//EN" "http://www.w3.org/Graphics/SVG/1.1/DTD/svg11.dtd">
<!-- Creator: CorelDRAW -->
<svg xmlns="http://www.w3.org/2000/svg" xml:space="preserve" width="6.1471mm" height="5.5174mm" version="1.1" style="shape-rendering:geometricPrecision; text-rendering:geometricPrecision; image-rendering:optimizeQuality; fill-rule:evenodd; clip-rule:evenodd"
viewBox="0 0 1233.25 1106.92"
 xmlns:xlink="http://www.w3.org/1999/xlink"
 xmlns:xodm="http://www.corel.com/coreldraw/odm/2003">
 <defs>
  <style type="text/css">
   <![CDATA[
    .fil0 {fill:#2B2A29}
    .fil1 {fill:#E31E24}
    .fil2 {fill:#FEFEFE;fill-rule:nonzero}
   ]]>
  </style>
 </defs>
 <g id="Katman_x0020_1">
  <metadata id="CorelCorpID_0Corel-Layer"/>
  <g id="_2880964770912">
   <path class="fil0" d="M158.23 123.06l540.44 0c87.03,0 2.61,71.24 2.61,158.23l0 65.1 204.66 0c86.99,0 158.23,71.2 158.23,158.23 0,162.46 0,307.01 0,469.48 0,29.99 -0.04,42.83 -12.94,60.79 -64.6,90.04 -174.56,99.17 -249.64,7.38 -7.9,-9.69 -12.94,-27.08 -33.56,-31.74l-167.16 0c-87.01,0 -158.23,-71.26 -158.23,-158.23l0 -47.17 -146.5 0c-20.62,4.65 -25.64,22.05 -33.56,31.74 -75.07,91.81 -185.01,82.66 -249.64,-7.38 -12.9,-17.98 -12.94,-30.8 -12.94,-60.79 0,-162.46 0,-324.95 0,-487.41 0,-87.03 71.2,-158.23 158.23,-158.23zm456.02 223.33l0 -9.73c0,-65.42 102.06,-118.97 36.69,-118.97l-444.98 0c-65.38,0 -118.95,53.55 -118.95,118.97 0,138.97 -0.08,281.64 2.07,420.05 0.52,21.77 47.47,49.31 79.57,18.96 45.04,-37.04 32.08,-49.49 86.75,-64.96l187.24 -0.16 0 -205.92c0,-86.97 71.24,-158.23 158.23,-158.23l13.38 0zm34.35 569.51c-65.32,-0.08 -118.93,-53.55 -118.93,-118.97l0 -236.94c0,-65.42 53.55,-118.97 118.93,-118.97l209.61 0c65.4,0 118.95,53.55 118.95,118.97 0,138.97 0.08,263.7 -2.07,402.11 -0.52,21.77 -47.47,49.31 -79.57,18.96 -45.04,-37.04 -32.08,-49.49 -86.75,-64.96l-160.18 -0.2z"/>
   <circle class="fil1" cx="890.67" cy="342.58" r="342.58"/>
   <path class="fil2" d="M976.37 429.27l0 51.26 -194.14 0c2.09,-19.5 8.41,-37.94 18.9,-55.37 10.49,-17.41 31.28,-40.57 62.23,-69.42 24.96,-23.27 40.22,-39.08 45.88,-47.37 7.6,-11.44 11.44,-22.73 11.44,-33.97 0,-12.38 -3.31,-21.87 -9.95,-28.53 -6.6,-6.66 -15.75,-9.95 -27.39,-9.95 -11.58,0 -20.72,3.49 -27.59,10.49 -6.8,6.92 -10.69,18.5 -11.78,34.71l-55.29 -5.52c3.29,-30.53 13.58,-52.46 30.94,-65.78 17.35,-13.26 39.02,-19.92 65.06,-19.92 28.53,0 50.92,7.74 67.27,23.15 16.27,15.41 24.42,34.57 24.42,57.52 0,13.04 -2.35,25.42 -7,37.26 -4.63,11.78 -12.04,24.09 -22.19,37.02 -6.66,8.61 -18.84,20.9 -36.33,36.99 -17.55,16.07 -28.65,26.7 -33.3,32.02 -4.69,5.26 -8.47,10.43 -11.36,15.41l110.18 0z"/>
  </g>
 </g>
</svg>
