<?xml version="1.0" encoding="UTF-8"?>
<!DOCTYPE svg PUBLIC "-//W3C//DTD SVG 1.1//EN" "http://www.w3.org/Graphics/SVG/1.1/DTD/svg11.dtd">
<!-- Creator: CorelDRAW -->
<svg xmlns="http://www.w3.org/2000/svg" xml:space="preserve" width="4.6631mm" height="3.9712mm" version="1.1" style="shape-rendering:geometricPrecision; text-rendering:geometricPrecision; image-rendering:optimizeQuality; fill-rule:evenodd; clip-rule:evenodd"
viewBox="0 0 27.29 23.24"
 xmlns:xlink="http://www.w3.org/1999/xlink"
 xmlns:xodm="http://www.corel.com/coreldraw/odm/2003">
 <defs>
  <style type="text/css">
   <![CDATA[
    .fil0 {fill:#2B2A29}
   ]]>
  </style>
 </defs>
 <g id="Katman_x0020_1">
  <metadata id="CorelCorpID_0Corel-Layer"/>
  <path class="fil0" d="M8.21 0.92l0 17.93 4.06 -4.96c0.44,-0.54 1.25,-0.63 1.8,-0.18 0.54,0.44 0.63,1.25 0.18,1.8l-5.73 7c-0.07,0.16 -0.18,0.31 -0.33,0.43 -0.4,0.34 -0.96,0.39 -1.4,0.17l-0 -0c-0.1,-0.04 -0.19,-0.1 -0.27,-0.17 -0.11,-0.09 -0.21,-0.2 -0.28,-0.32l-5.94 -6.94c-0.46,-0.53 -0.39,-1.34 0.14,-1.8 0.53,-0.46 1.34,-0.39 1.8,0.14l4.12 4.82 0 -17.92c0,-0.51 0.41,-0.92 0.92,-0.92 0.51,0 0.92,0.41 0.92,0.92zm12.75 21.4l0 -17.93 4.06 4.96c0.44,0.54 1.25,0.63 1.8,0.18 0.54,-0.44 0.63,-1.25 0.18,-1.8l-5.73 -7c-0.07,-0.16 -0.18,-0.31 -0.33,-0.43 -0.4,-0.34 -0.96,-0.39 -1.4,-0.17l-0 0c-0.1,0.04 -0.19,0.1 -0.27,0.17 -0.11,0.09 -0.21,0.2 -0.28,0.32l-5.94 6.94c-0.46,0.53 -0.39,1.34 0.14,1.8 0.53,0.46 1.34,0.39 1.8,-0.14l4.12 -4.82 0 17.92c0,0.51 0.41,0.92 0.92,0.92 0.51,0 0.92,-0.41 0.92,-0.92z"/>
 </g>
</svg>
