<?xml version="1.0" encoding="UTF-8"?>
<!DOCTYPE svg PUBLIC "-//W3C//DTD SVG 1.1//EN" "http://www.w3.org/Graphics/SVG/1.1/DTD/svg11.dtd">
<!-- Creator: CorelDRAW -->
<svg xmlns="http://www.w3.org/2000/svg" xml:space="preserve" width="5.0872mm" height="5.1121mm" version="1.1" style="shape-rendering:geometricPrecision; text-rendering:geometricPrecision; image-rendering:optimizeQuality; fill-rule:evenodd; clip-rule:evenodd"
viewBox="0 0 47.85 48.08"
 xmlns:xlink="http://www.w3.org/1999/xlink"
 xmlns:xodm="http://www.corel.com/coreldraw/odm/2003">
 <defs>
  <style type="text/css">
   <![CDATA[
    .fil0 {fill:#2B2A29}
   ]]>
  </style>
 </defs>
 <g id="Katman_x0020_1">
  <metadata id="CorelCorpID_0Corel-Layer"/>
  <path class="fil0" d="M4.31 6.64l4.69 0 0 0.66c0,1.22 0.99,2.21 2.21,2.21l6.89 0c1.22,0 2.21,-0.99 2.21,-2.21l0 -0.66 7.22 0 0 0.66c0,1.22 0.99,2.21 2.21,2.21l6.89 0c1.22,0 2.21,-0.99 2.21,-2.21l0 -0.66 4.69 0c2.37,0 4.31,1.94 4.31,4.31l0 32.82c0,2.37 -1.94,4.31 -4.31,4.31l-39.22 0c-2.37,0 -4.31,-1.94 -4.31,-4.31l0 -32.82c0,-2.37 1.94,-4.31 4.31,-4.31zm17.62 10c-1.05,0.74 -0.7,0.7 -1.61,0.95 -0.91,0.25 -0.84,0 -1.47,0.25 -0.63,0.25 -0.77,1.23 -0.88,2.49 -0.11,1.26 0.11,2.81 0.25,3.09 0.14,0.28 -0.64,0.07 -0.46,1.09 0.19,1.02 0.52,1.6 0.82,1.5 0.29,-0.11 0.45,-0.26 0.45,-0.26 0,0 0.25,1.14 0.67,1.57 0.43,0.43 0.67,0.3 0.92,0.62 0.25,0.32 0.41,1.06 0.37,1.42 -0.03,0.36 -0.12,1.42 -0.12,1.42 0,0 -0.77,1.19 -1.5,1.58 -0.73,0.4 -2.93,1.62 -3.5,2.13 -0.56,0.52 -0.96,1.22 -0.92,2.77 0.01,0.44 0.06,0.69 0.37,0.71 0.13,0.01 0.31,-0 0.57,-0 5.35,0 10.71,0 16.06,0 0.26,0 0.44,0.01 0.57,0 0.31,-0.02 0.36,-0.26 0.37,-0.71 0.05,-1.55 -0.35,-2.25 -0.92,-2.77 -0.56,-0.52 -2.77,-1.74 -3.5,-2.13 -0.73,-0.4 -1.5,-1.58 -1.5,-1.58 0,0 -0.09,-1.06 -0.12,-1.42 -0.04,-0.35 0.12,-1.1 0.37,-1.42 0.25,-0.32 0.5,-0.19 0.92,-0.62 0.43,-0.43 0.67,-1.57 0.67,-1.57 0,0 0.15,0.15 0.45,0.26 0.29,0.11 0.63,-0.48 0.82,-1.5 0.18,-1.02 -0.6,-0.8 -0.46,-1.09 0.14,-0.28 0.35,-1.82 0.25,-3.09 -0.11,-1.26 -0.25,-2.25 -0.88,-2.49 -0.63,-0.25 -0.56,0 -1.47,-0.25 -0.91,-0.25 -0.56,-0.21 -1.61,-0.95 -0.86,-0.6 -3.13,-0.6 -3.99,0zm-7.33 -16.64c2.13,0 3.86,1.73 3.86,3.86 0,2.13 -1.73,3.86 -3.86,3.86 -2.13,0 -3.86,-1.73 -3.86,-3.86 0,-2.13 1.73,-3.86 3.86,-3.86zm18.72 0c2.13,0 3.86,1.73 3.86,3.86 0,2.13 -1.73,3.86 -3.86,3.86 -2.13,0 -3.86,-1.73 -3.86,-3.86 0,-2.13 1.73,-3.86 3.86,-3.86z"/>
 </g>
</svg>
