<?xml version="1.0" encoding="UTF-8"?>
<svg width="100px" height="100px" viewBox="0 0 102 90" version="1.1" xmlns="http://www.w3.org/2000/svg" xmlns:xlink="http://www.w3.org/1999/xlink">
    <title>Pepperstone-icon</title>
    <g id="Pepperstone-logo" stroke="none" stroke-width="1" fill="none" fill-rule="evenodd">
        <g id="Graphic" transform="translate(1.0, 1.0)">
            <path d="M85.6403699,16.8824539 C69.655977,7.70442684 36.3740499,0.491794422 18.7539271,0.0242682345 C1.12928594,-0.443257953 -0.838092753,5.82976543 0.23874135,20.109722 C1.32011915,34.3942625 5.44115633,56.681129 14.5374491,70.915752 C23.6291534,85.150375 37.6916629,91.3325603 52.59914,86.230689 C67.5021454,81.1241561 83.2549791,64.7335666 91.7832031,50.9664582 C100.311622,37.2084785 101.624763,26.060578 85.6403699,16.8824539 Z" id="Path" fill="#0064FA"></path>
            <path d="M54.3485692,56.1046507 L43.1394295,56.1046507 L43.1394295,74.7287049 L31.7259501,74.7287049 L31.7259501,33.2958849 L43.1394295,33.2958849 L43.1394295,44.6980342 L54.3485692,44.6980342 L54.3485692,44.6661802 C59.0511078,44.5846031 62.8404359,40.758054 62.8404359,36.0419259 C62.8404359,31.3257977 59.0511078,27.4947813 54.3485692,27.4176715 L54.3485692,27.4085426 L17.454454,27.4085426 L21.6254173,16.0064128 L54.343903,16.0064128 C65.4484424,16.0064128 74.4539796,25.002989 74.4539796,36.0965048 C74.4584496,47.194488 65.4531086,56.1046507 54.3485692,56.1046507 Z" id="Path" fill="#FFFFFF"></path>
        </g>
    </g>
</svg>
