<?xml version="1.0" encoding="UTF-8"?>
<!DOCTYPE svg PUBLIC "-//W3C//DTD SVG 1.1//EN" "http://www.w3.org/Graphics/SVG/1.1/DTD/svg11.dtd">
<!-- Creator: CorelDRAW -->
<svg xmlns="http://www.w3.org/2000/svg" xml:space="preserve" width="4.403mm" height="4.4066mm" version="1.1" style="shape-rendering:geometricPrecision; text-rendering:geometricPrecision; image-rendering:optimizeQuality; fill-rule:evenodd; clip-rule:evenodd"
viewBox="0 0 47.33 47.37"
 xmlns:xlink="http://www.w3.org/1999/xlink"
 xmlns:xodm="http://www.corel.com/coreldraw/odm/2003">
 <defs>
  <style type="text/css">
   <![CDATA[
    .fil0 {fill:#2B2A29}
   ]]>
  </style>
 </defs>
 <g id="Katman_x0020_1">
  <metadata id="CorelCorpID_0Corel-Layer"/>
  <path class="fil0" d="M25.93 36.23l0 2.64 -4.53 0 0 -2.55c-1.32,-0.22 -2.59,-0.68 -3.67,-1.49 -1.42,-1.08 -2.24,-2.56 -2.62,-4.29l-0.07 -0.31 3.45 -1.88 0.13 0.54c0.27,1.1 0.72,2.23 1.56,3.03 1.79,1.71 5.44,1.64 7.14,-0.17 0.7,-0.75 0.94,-1.72 0.94,-2.73 0,-0.94 -0.25,-1.79 -0.88,-2.5 -2.06,-2.29 -7.02,-2.54 -9.74,-5.32 -1.15,-1.18 -1.72,-2.62 -1.72,-4.27 0,-1.73 0.59,-3.23 1.86,-4.41 1.01,-0.94 2.28,-1.48 3.61,-1.77l0 -2.26 4.53 0 0 2.21c0.87,0.18 1.72,0.46 2.5,0.91 1.14,0.65 2.02,1.57 2.66,2.73l0.21 0.37 -3.51 1.97 -0.19 -0.42c-0.31,-0.67 -0.73,-1.28 -1.32,-1.72 -1.49,-1.12 -4.17,-0.98 -5.53,0.31 -0.52,0.5 -0.79,1.09 -0.79,1.81 0,0.75 0.19,1.44 0.68,2.01 1.84,2.11 7.02,2.44 9.71,5.23 1.32,1.37 1.9,3.07 1.9,4.96 0,2.03 -0.64,3.83 -2.11,5.25 -1.18,1.14 -2.63,1.79 -4.21,2.12zm20.77 -19.36l-12.26 0 0 -3.69 5.76 0c-3.47,-5.46 -9.58,-9.08 -16.53,-9.08 -10.61,0 -19.25,8.44 -19.57,18.98l-4.11 0c0.32,-12.8 10.8,-23.08 23.68,-23.08 8.02,0 15.11,3.99 19.39,10.09l0 -5.59 3.63 0 0 12.37zm-46.47 13.73l12.26 0 0 3.69 -5.27 0c3.49,5.4 9.55,8.97 16.46,8.97 10.41,0 18.91,-8.12 19.54,-18.37l4.11 0c-0.63,12.52 -10.98,22.47 -23.65,22.47 -8.29,0 -15.58,-4.26 -19.81,-10.71l0 6.31 -3.63 0 0 -12.37z"/>
 </g>
</svg>
