<?xml version="1.0" encoding="UTF-8"?>
<!DOCTYPE svg PUBLIC "-//W3C//DTD SVG 1.1//EN" "http://www.w3.org/Graphics/SVG/1.1/DTD/svg11.dtd">
<!-- Creator: CorelDRAW -->
<svg xmlns="http://www.w3.org/2000/svg" xml:space="preserve" width="5.0872mm" height="5.1121mm" version="1.1" style="shape-rendering:geometricPrecision; text-rendering:geometricPrecision; image-rendering:optimizeQuality; fill-rule:evenodd; clip-rule:evenodd"
viewBox="0 0 153.29 154.04"
 xmlns:xlink="http://www.w3.org/1999/xlink"
 xmlns:xodm="http://www.corel.com/coreldraw/odm/2003">
 <defs>
  <style type="text/css">
   <![CDATA[
    .fil0 {fill:#2B2A29}
   ]]>
  </style>
 </defs>
 <g id="Katman_x0020_1">
  <metadata id="CorelCorpID_0Corel-Layer"/>
  <path class="fil0" d="M13.82 21.27l15.02 0 0 2.11c0,3.9 3.19,7.08 7.08,7.08l22.08 0c3.9,0 7.08,-3.19 7.08,-7.08l0 -2.11 23.14 0 0 2.11c0,3.9 3.19,7.08 7.08,7.08l22.08 0c3.9,0 7.08,-3.19 7.08,-7.08l0 -2.11 15.02 0c7.6,0 13.82,6.22 13.82,13.82l0 105.13c0,7.6 -6.22,13.82 -13.82,13.82l-125.66 0c-7.6,0 -13.82,-6.22 -13.82,-13.82l0 -105.13c0,-7.6 6.22,-13.82 13.82,-13.82zm32.95 -21.27c6.83,0 12.38,5.54 12.38,12.38 0,6.83 -5.54,12.38 -12.38,12.38 -6.83,0 -12.38,-5.54 -12.38,-12.38 0,-6.83 5.54,-12.38 12.38,-12.38zm59.98 0c6.83,0 12.38,5.54 12.38,12.38 0,6.83 -5.54,12.38 -12.38,12.38 -6.83,0 -12.38,-5.54 -12.38,-12.38 0,-6.83 5.54,-12.38 12.38,-12.38zm-29.72 127.8c-4.55,0 -8.55,-0.69 -11.95,-2.04 -3.43,-1.37 -6.18,-3.34 -8.24,-5.92 -2.09,-2.57 -3.41,-5.7 -4,-9.38l11.53 0c0.51,2.89 1.9,4.99 4.11,6.32 2.22,1.33 5.06,2.01 8.55,2.01 3.73,0 6.65,-0.83 8.72,-2.48 2.06,-1.66 3.11,-3.99 3.11,-7l0 -2.02c0,-3.34 -0.99,-5.92 -2.94,-7.74 -1.97,-1.84 -4.74,-2.75 -8.33,-2.75l-5.7 0 0 -8.91 5.7 0c3.18,0 5.65,-0.78 7.35,-2.34 1.72,-1.57 2.59,-3.78 2.59,-6.62l0 -2.07c0,-2.64 -0.93,-4.68 -2.75,-6.12 -1.84,-1.44 -4.44,-2.15 -7.81,-2.15 -2.84,0 -5.26,0.66 -7.23,1.99 -1.99,1.33 -3.35,3.44 -4.1,6.32l-11.48 0c1.16,-5.52 3.72,-9.79 7.7,-12.81 3.97,-3.03 9.02,-4.54 15.11,-4.54 6.96,0 12.34,1.52 16.16,4.55 3.81,3.05 5.7,7.31 5.7,12.84l0 1.1c0,3.34 -1.08,6.24 -3.26,8.71 -2.2,2.46 -5.29,4.28 -9.28,5.45 4.41,0.77 7.82,2.56 10.25,5.37 2.42,2.79 3.64,6.36 3.64,10.69l0 1.1c0,5.85 -2.03,10.39 -6.07,13.61 -4.03,3.22 -9.72,4.83 -17.09,4.83z"/>
 </g>
</svg>
