<?xml version="1.0" encoding="UTF-8"?>
<!DOCTYPE svg PUBLIC "-//W3C//DTD SVG 1.1//EN" "http://www.w3.org/Graphics/SVG/1.1/DTD/svg11.dtd">
<!-- Creator: CorelDRAW -->
<svg xmlns="http://www.w3.org/2000/svg" xml:space="preserve" width="5.0872mm" height="5.1121mm" version="1.1" style="shape-rendering:geometricPrecision; text-rendering:geometricPrecision; image-rendering:optimizeQuality; fill-rule:evenodd; clip-rule:evenodd"
viewBox="0 0 63.56 63.87"
 xmlns:xlink="http://www.w3.org/1999/xlink"
 xmlns:xodm="http://www.corel.com/coreldraw/odm/2003">
 <defs>
  <style type="text/css">
   <![CDATA[
    .fil0 {fill:#2B2A29}
   ]]>
  </style>
 </defs>
 <g id="Katman_x0020_1">
  <metadata id="CorelCorpID_0Corel-Layer"/>
  <path class="fil0" d="M5.73 8.82l6.23 0 0 0.87c0,1.62 1.32,2.94 2.94,2.94l9.15 0c1.62,0 2.94,-1.32 2.94,-2.94l0 -0.87 9.59 0 0 0.87c0,1.62 1.32,2.94 2.94,2.94l9.15 0c1.62,0 2.94,-1.32 2.94,-2.94l0 -0.87 6.23 0c3.15,0 5.73,2.58 5.73,5.73l0 43.59c0,3.15 -2.58,5.73 -5.73,5.73l-52.1 0c-3.15,0 -5.73,-2.58 -5.73,-5.73l0 -43.59c0,-3.15 2.58,-5.73 5.73,-5.73zm9.85 19.29l32.4 0c2.5,0 4.54,2.04 4.54,4.54l0 17.71c0,2.5 -2.04,4.54 -4.54,4.54l-32.4 0c-2.5,0 -4.54,-2.04 -4.54,-4.54l0 -17.71c0,-2.5 2.04,-4.54 4.54,-4.54zm-5.26 -8.51l42.93 0c2.56,0 4.65,2.1 4.65,4.66l0 28.76c0,2.56 -2.09,4.66 -4.65,4.66l-42.93 0c-2.56,0 -4.65,-2.1 -4.65,-4.66l0 -28.76c0,-2.56 2.09,-4.66 4.65,-4.66zm9.07 -19.6c2.83,0 5.13,2.3 5.13,5.13 0,2.83 -2.3,5.13 -5.13,5.13 -2.83,0 -5.13,-2.3 -5.13,-5.13 0,-2.83 2.3,-5.13 5.13,-5.13zm24.87 0c2.83,0 5.13,2.3 5.13,5.13 0,2.83 -2.3,5.13 -5.13,5.13 -2.83,0 -5.13,-2.3 -5.13,-5.13 0,-2.83 2.3,-5.13 5.13,-5.13z"/>
 </g>
</svg>
