<?xml version="1.0" encoding="UTF-8"?>
<!DOCTYPE svg PUBLIC "-//W3C//DTD SVG 1.1//EN" "http://www.w3.org/Graphics/SVG/1.1/DTD/svg11.dtd">
<!-- Creator: CorelDRAW -->
<svg xmlns="http://www.w3.org/2000/svg" xml:space="preserve" width="5.0872mm" height="5.1121mm" version="1.1" style="shape-rendering:geometricPrecision; text-rendering:geometricPrecision; image-rendering:optimizeQuality; fill-rule:evenodd; clip-rule:evenodd"
viewBox="0 0 93.53 93.99"
 xmlns:xlink="http://www.w3.org/1999/xlink"
 xmlns:xodm="http://www.corel.com/coreldraw/odm/2003">
 <defs>
  <style type="text/css">
   <![CDATA[
    .fil0 {fill:#2B2A29}
   ]]>
  </style>
 </defs>
 <g id="Katman_x0020_1">
  <metadata id="CorelCorpID_0Corel-Layer"/>
  <path class="fil0" d="M8.43 12.98l9.17 0 0 1.29c0,2.38 1.94,4.32 4.32,4.32l13.47 0c2.38,0 4.32,-1.94 4.32,-4.32l0 -1.29 14.12 0 0 1.29c0,2.38 1.94,4.32 4.32,4.32l13.47 0c2.38,0 4.32,-1.94 4.32,-4.32l0 -1.29 9.17 0c4.64,0 8.43,3.79 8.43,8.43l0 64.15c0,4.64 -3.79,8.43 -8.43,8.43l-76.67 0c-4.64,0 -8.43,-3.79 -8.43,-8.43l0 -64.15c0,-4.64 3.79,-8.43 8.43,-8.43zm13.98 27.79l48.69 0 0.03 0c3.17,0 5.75,2.58 5.75,5.75 0,3.18 -2.58,5.75 -5.75,5.75l-0.03 0 -48.69 0c-3.18,0 -5.75,-2.58 -5.75,-5.75 0,-3.17 2.58,-5.75 5.75,-5.75zm48.73 20.67c3.17,0 5.75,2.58 5.75,5.75 0,3.18 -2.58,5.75 -5.75,5.75 -3.18,0 -5.75,-2.58 -5.75,-5.75 0,-3.17 2.58,-5.75 5.75,-5.75zm-16.24 0c3.17,0 5.75,2.58 5.75,5.75 0,3.18 -2.58,5.75 -5.75,5.75 -3.18,0 -5.75,-2.58 -5.75,-5.75 0,-3.17 2.58,-5.75 5.75,-5.75zm-16.24 0c3.17,0 5.75,2.58 5.75,5.75 0,3.18 -2.58,5.75 -5.75,5.75 -3.18,0 -5.75,-2.58 -5.75,-5.75 0,-3.17 2.58,-5.75 5.75,-5.75zm-16.24 0c3.17,0 5.75,2.58 5.75,5.75 0,3.18 -2.58,5.75 -5.75,5.75 -3.18,0 -5.75,-2.58 -5.75,-5.75 0,-3.17 2.58,-5.75 5.75,-5.75zm-7.22 -32.6l63.17 0c3.77,0 6.85,3.08 6.85,6.85l0 42.33c0,3.77 -3.08,6.85 -6.85,6.85l-63.17 0c-3.77,0 -6.85,-3.08 -6.85,-6.85l0 -42.33c0,-3.77 3.08,-6.85 6.85,-6.85zm13.35 -28.84c4.17,0 7.55,3.38 7.55,7.55 0,4.17 -3.38,7.55 -7.55,7.55 -4.17,0 -7.55,-3.38 -7.55,-7.55 0,-4.17 3.38,-7.55 7.55,-7.55zm36.6 0c4.17,0 7.55,3.38 7.55,7.55 0,4.17 -3.38,7.55 -7.55,7.55 -4.17,0 -7.55,-3.38 -7.55,-7.55 0,-4.17 3.38,-7.55 7.55,-7.55z"/>
 </g>
</svg>
