<?xml version="1.0" encoding="UTF-8"?>
<!DOCTYPE svg PUBLIC "-//W3C//DTD SVG 1.1//EN" "http://www.w3.org/Graphics/SVG/1.1/DTD/svg11.dtd">
<!-- Creator: CorelDRAW -->
<svg xmlns="http://www.w3.org/2000/svg" xml:space="preserve" width="4.3739mm" height="4.3928mm" version="1.1" style="shape-rendering:geometricPrecision; text-rendering:geometricPrecision; image-rendering:optimizeQuality; fill-rule:evenodd; clip-rule:evenodd"
viewBox="0 0 42.88 43.07"
 xmlns:xlink="http://www.w3.org/1999/xlink"
 xmlns:xodm="http://www.corel.com/coreldraw/odm/2003">
 <defs>
  <style type="text/css">
   <![CDATA[
    .fil0 {fill:#2B2A29}
   ]]>
  </style>
 </defs>
 <g id="Katman_x0020_1">
  <metadata id="CorelCorpID_0Corel-Layer"/>
  <path class="fil0" d="M10.41 0c3.64,0 6.59,2.95 6.59,6.59 0,3.64 -2.95,6.59 -6.59,6.59 -3.64,0 -6.59,-2.95 -6.59,-6.59 0,-3.64 2.95,-6.59 6.59,-6.59zm-4.16 17.37l8.75 0 0.02 0 0.01 0 0.68 0c0.49,0 0.89,0.4 0.89,0.89l0 1.99c0,0.49 -0.4,0.89 -0.89,0.89l-0.55 0 -0.13 0 -0.02 0 -8.98 0c-1.19,0 -2.16,0.97 -2.16,2.16l0 9.25c0,3.72 3.04,6.76 6.76,6.76l0 0c0.93,0 1.82,-0.19 2.63,-0.53 0.04,-0.02 0.09,-0.04 0.14,-0.06l0.65 -0.21c0.46,-0.15 0.97,0.11 1.12,0.57l0.61 1.89c0.15,0.46 -0.11,0.97 -0.57,1.12l-0.41 0.13c-1.28,0.55 -2.69,0.85 -4.16,0.85 -5.86,0 -10.64,-4.78 -10.64,-10.64l0 -8.81c0,-3.45 2.81,-6.25 6.25,-6.25zm21.6 0l8.77 0c3.45,0 6.25,2.81 6.25,6.25l0 8.81c0,5.86 -4.78,10.64 -10.64,10.64 -5.86,0 -10.64,-4.78 -10.64,-10.64l0 -8.81c0,-3.45 2.81,-6.25 6.25,-6.25zm-0.22 3.76l9.21 0c1.19,0 2.16,0.97 2.16,2.16l0 9.25c0,3.72 -3.04,6.76 -6.76,6.76l-0 0c-3.72,0 -6.76,-3.04 -6.76,-6.76l0 -9.25c0,-1.19 0.97,-2.16 2.16,-2.16zm4.46 -21.13c3.64,0 6.59,2.95 6.59,6.59 0,3.64 -2.95,6.59 -6.59,6.59 -3.64,0 -6.59,-2.95 -6.59,-6.59 0,-3.64 2.95,-6.59 6.59,-6.59zm0 3.6c1.66,0 3,1.34 3,3 0,1.66 -1.34,3 -3,3 -1.66,0 -3,-1.34 -3,-3 0,-1.66 1.34,-3 3,-3zm-21.69 0c1.66,0 3,1.34 3,3 0,1.66 -1.34,3 -3,3 -1.66,0 -3,-1.34 -3,-3 0,-1.66 1.34,-3 3,-3z"/>
 </g>
</svg>
